<svg xmlns="http://www.w3.org/2000/svg" viewBox="104 96 264 264" role="img" aria-label="Blackbox Records">
  <path fill="#d6d9db" d="m 0,0 v 52.479 c 0,0.048 -0.01,0.086 -0.012,0.133 -0.005,0.084 -0.012,0.165 -0.029,0.248 -0.011,0.077 -0.031,0.151 -0.05,0.224 -0.019,0.074 -0.04,0.146 -0.064,0.215 -0.033,0.081 -0.066,0.157 -0.107,0.236 -0.019,0.04 -0.031,0.078 -0.052,0.117 -0.013,0.024 -0.032,0.04 -0.044,0.059 -0.047,0.074 -0.097,0.143 -0.15,0.21 -0.045,0.054 -0.085,0.115 -0.136,0.162 -0.05,0.055 -0.109,0.105 -0.166,0.155 -0.056,0.049 -0.115,0.1 -0.172,0.143 -0.062,0.048 -0.131,0.081 -0.196,0.122 -0.061,0.035 -0.125,0.073 -0.193,0.105 -0.069,0.033 -0.145,0.054 -0.219,0.08 -0.067,0.024 -0.141,0.048 -0.209,0.064 -0.069,0.017 -0.149,0.027 -0.22,0.039 -0.081,0.012 -0.159,0.021 -0.245,0.024 -0.029,0 -0.05,0.007 -0.079,0.007 -0.048,0 -0.09,-0.01 -0.135,-0.014 -0.082,-0.005 -0.163,-0.01 -0.249,-0.024 -0.073,-0.013 -0.149,-0.032 -0.226,-0.05 -0.069,-0.019 -0.141,-0.041 -0.21,-0.065 -0.081,-0.031 -0.157,-0.066 -0.236,-0.107 -0.04,-0.019 -0.081,-0.031 -0.119,-0.05 L -25.639,41.74 c -0.024,-0.012 -0.04,-0.031 -0.062,-0.045 -0.069,-0.048 -0.138,-0.095 -0.205,-0.148 -0.055,-0.045 -0.112,-0.088 -0.164,-0.136 -0.055,-0.052 -0.105,-0.112 -0.155,-0.169 -0.05,-0.055 -0.1,-0.109 -0.143,-0.172 -0.046,-0.059 -0.081,-0.128 -0.12,-0.193 -0.038,-0.064 -0.074,-0.128 -0.104,-0.193 -0.034,-0.069 -0.058,-0.145 -0.081,-0.216 -0.027,-0.072 -0.05,-0.141 -0.067,-0.215 -0.017,-0.07 -0.024,-0.143 -0.036,-0.217 -0.012,-0.081 -0.024,-0.162 -0.026,-0.248 0,-0.028 -0.007,-0.05 -0.007,-0.075 v -55.19 l -22.67,-13.088 V 46.849 L 5.286,78.656 C 5.291,78.598 5.299,78.54 5.304,78.482 l 16.522,9.539 V 12.6 Z m -4.685,-0.005 -17.436,10.069 v 28.292 l 17.436,10.067 z m -49.472,-28.56 -71.304,41.16 v 75.419 l 71.475,-41.227 z m 2.252,79.599 -71.606,41.454 69.525,40.144 71.697,-41.389 z m 72.648,43.874 -73.495,42.419 c -0.764,0.441 -1.704,0.441 -2.467,0 l -73.693,-42.584 c -0.763,-0.441 -1.232,-1.255 -1.232,-2.136 V 11.24 c 0,-0.027 0.007,-0.051 0.007,-0.077 0.002,-0.083 0.012,-0.165 0.024,-0.248 0.009,-0.071 0.019,-0.145 0.036,-0.214 0.016,-0.072 0.043,-0.143 0.066,-0.215 0.027,-0.071 0.051,-0.145 0.081,-0.217 0.031,-0.064 0.07,-0.128 0.105,-0.192 0.038,-0.065 0.074,-0.134 0.12,-0.194 0.042,-0.059 0.095,-0.116 0.142,-0.173 0.05,-0.058 0.101,-0.115 0.155,-0.167 0.053,-0.05 0.11,-0.091 0.165,-0.138 0.067,-0.05 0.133,-0.103 0.205,-0.148 0.021,-0.014 0.04,-0.034 0.062,-0.046 l 75.987,-43.865 c 0.004,0 0.004,0 0.009,-0.003 0.031,-0.019 0.062,-0.026 0.093,-0.043 0.122,-0.062 0.248,-0.112 0.377,-0.153 0.05,-0.014 0.098,-0.033 0.148,-0.047 0.169,-0.04 0.343,-0.064 0.522,-0.064 0.007,0 0.014,-0.005 0.021,-0.005 h 0.003 0.002 c 0.007,0 0.014,0.005 0.021,0.005 0.182,0 0.353,0.026 0.522,0.064 0.05,0.014 0.098,0.033 0.148,0.047 0.131,0.044 0.255,0.091 0.377,0.153 0.03,0.017 0.064,0.024 0.095,0.043 0.002,0.003 0.005,0.003 0.009,0.003 l 27.35,15.793 c 0.022,0.014 0.041,0.031 0.06,0.048 0.072,0.045 0.138,0.092 0.205,0.147 0.055,0.045 0.114,0.089 0.167,0.139 0.052,0.05 0.102,0.109 0.153,0.166 0.049,0.058 0.097,0.113 0.143,0.172 0.045,0.062 0.081,0.129 0.121,0.196 0.035,0.062 0.074,0.126 0.105,0.192 0.031,0.07 0.052,0.143 0.078,0.217 0.027,0.069 0.05,0.141 0.067,0.215 0.017,0.07 0.027,0.14 0.036,0.214 0.014,0.082 0.024,0.164 0.026,0.248 0,0.027 0.01,0.05 0.01,0.074 V 4.657 L -3.513,-6.087 c 0.003,-0.002 0.007,-0.002 0.009,-0.005 0.031,-0.018 0.063,-0.026 0.096,-0.04 0.119,-0.062 0.245,-0.115 0.374,-0.156 0.05,-0.013 0.098,-0.033 0.148,-0.044 0.167,-0.041 0.343,-0.065 0.521,-0.067 0.01,0 0.015,-0.002 0.022,-0.002 h 0.005 c 0.007,0 0.014,0.002 0.021,0.002 0.181,0.002 0.353,0.028 0.523,0.067 0.049,0.011 0.095,0.031 0.145,0.044 0.133,0.044 0.257,0.094 0.379,0.156 0.031,0.014 0.062,0.022 0.092,0.04 0.006,0.003 0.008,0.003 0.01,0.005 L 25.341,9.218 c 0.024,0.012 0.041,0.032 0.062,0.045 0.072,0.046 0.138,0.096 0.205,0.149 0.055,0.047 0.114,0.087 0.164,0.137 0.055,0.053 0.105,0.111 0.155,0.168 0.05,0.057 0.098,0.114 0.143,0.174 0.045,0.059 0.081,0.129 0.119,0.193 0.038,0.064 0.074,0.128 0.105,0.192 0.033,0.072 0.055,0.146 0.081,0.218 0.027,0.071 0.05,0.142 0.064,0.214 0.02,0.069 0.029,0.143 0.038,0.215 0.013,0.083 0.022,0.164 0.027,0.247 0,0.026 0.007,0.05 0.007,0.076 v 78.913 c 0,0.883 -0.471,1.697 -1.235,2.138 z" transform="matrix(1.3333333,0,0,-1.3333333,304.61453,303.12707)"/>
</svg>
